<svg xmlns="http://www.w3.org/2000/svg" xmlns:xlink="http://www.w3.org/1999/xlink" width="182pt" height="182pt" viewBox="0 0 181.51 181.51"><g id="graph0" class="graph" transform="scale(1 1) rotate(0) translate(4 177.5099)"><title>g</title><polygon fill="#fff" stroke="transparent" points="-4 4 -4 -177.51 177.51 -177.51 177.51 4 -4 4"/><g id="node1" class="node"><title>s</title><ellipse cx="86.755" cy="-18" fill="none" stroke="#000" rx="18" ry="18"/><text x="86.755" y="-14.3" fill="#000" font-family="Times,serif" font-size="14" text-anchor="middle">s</text></g><g id="node2" class="node"><title>2</title><ellipse cx="18" cy="-86.755" fill="none" stroke="#000" rx="18" ry="18"/><text x="18" y="-83.055" fill="#000" font-family="Times,serif" font-size="14" text-anchor="middle">2</text></g><g id="edge1" class="edge"><title>s-&gt;2</title><path fill="none" stroke="#e00" d="M73.8227,-30.9323C63.7391,-41.0158 49.5571,-55.1978 38.0113,-66.7436"/><polygon fill="#e00" stroke="#e00" points="35.471 -64.335 30.874 -73.881 40.42 -69.284 35.471 -64.335"/><text x="44.417" y="-52.638" fill="#000" font-family="Times,serif" font-size="14" text-anchor="middle">1/1</text></g><g id="node3" class="node"><title>3</title><ellipse cx="155.51" cy="-86.755" fill="none" stroke="#000" rx="18" ry="18"/><text x="155.51" y="-83.055" fill="#000" font-family="Times,serif" font-size="14" text-anchor="middle">3</text></g><g id="edge2" class="edge"><title>s-&gt;3</title><path fill="none" stroke="#000" d="M99.6872,-30.9323C109.7707,-41.0158 123.9528,-55.1978 135.4986,-66.7436"/><polygon fill="#000" stroke="#000" points="133.09 -69.284 142.636 -73.881 138.039 -64.335 133.09 -69.284"/><text x="106.093" y="-52.638" fill="#000" font-family="Times,serif" font-size="14" text-anchor="middle">0/1</text></g><g id="edge3" class="edge"><title>2-&gt;3</title><path fill="none" stroke="#e00" d="M36.2602,-86.7549C59.4788,-86.7549 99.8198,-86.7549 127.0803,-86.7549"/><polygon fill="#e00" stroke="#e00" points="127.174 -90.255 137.174 -86.755 127.174 -83.255 127.174 -90.255"/><text x="70.17" y="-90.555" fill="#000" font-family="Times,serif" font-size="14" text-anchor="middle">1/1</text></g><g id="node4" class="node"><title>t</title><ellipse cx="86.755" cy="-155.51" fill="none" stroke="#000" rx="18" ry="18"/><text x="86.755" y="-151.81" fill="#000" font-family="Times,serif" font-size="14" text-anchor="middle">t</text></g><g id="edge4" class="edge"><title>2-&gt;t</title><path fill="none" stroke="#000" d="M30.9323,-99.6872C41.0158,-109.7707 55.1978,-123.9528 66.7436,-135.4986"/><polygon fill="#000" stroke="#000" points="64.335 -138.039 73.881 -142.636 69.284 -133.09 64.335 -138.039"/><text x="37.338" y="-121.393" fill="#000" font-family="Times,serif" font-size="14" text-anchor="middle">0/1</text></g><g id="edge5" class="edge"><title>3-&gt;t</title><path fill="none" stroke="#e00" d="M142.5776,-99.6872C132.4941,-109.7707 118.312,-123.9528 106.7662,-135.4986"/><polygon fill="#e00" stroke="#e00" points="104.225 -133.09 99.629 -142.636 109.175 -138.039 104.225 -133.09"/><text x="113.172" y="-121.393" fill="#000" font-family="Times,serif" font-size="14" text-anchor="middle">1/1</text></g></g></svg>