<svg xmlns="http://www.w3.org/2000/svg" xmlns:xlink="http://www.w3.org/1999/xlink" width="182pt" height="182pt" viewBox="0 0 181.51 181.51"><g id="graph0" class="graph" transform="scale(1 1) rotate(0) translate(4 177.5099)"><title>g</title><g id="node1" class="node"><title>s</title><ellipse cx="86.755" cy="-18" fill="none" stroke="#000" rx="18" ry="18"/><text x="86.755" y="-14.3" fill="#000" font-family="Times,serif" font-size="14" text-anchor="middle">s</text></g><g id="node2" class="node"><title>2</title><ellipse cx="18" cy="-86.755" fill="none" stroke="#000" rx="18" ry="18"/><text x="18" y="-83.055" fill="#000" font-family="Times,serif" font-size="14" text-anchor="middle">2</text></g><g id="edge1" class="edge"><title>s-&gt;2</title><path fill="none" stroke="#000" d="M73.8227,-30.9323C63.7391,-41.0158 49.5571,-55.1978 38.0113,-66.7436"/><polygon fill="#000" stroke="#000" points="35.471 -64.335 30.874 -73.881 40.42 -69.284 35.471 -64.335"/><text x="50.917" y="-52.638" fill="#000" font-family="Times,serif" font-size="14" text-anchor="middle">1</text></g><g id="node3" class="node"><title>3</title><ellipse cx="155.51" cy="-86.755" fill="none" stroke="#000" rx="18" ry="18"/><text x="155.51" y="-83.055" fill="#000" font-family="Times,serif" font-size="14" text-anchor="middle">3</text></g><g id="edge3" class="edge"><title>3-&gt;s</title><path fill="none" stroke="#6cf" d="M142.5776,-73.8227C132.4941,-63.7391 118.312,-49.5571 106.7662,-38.0113"/><polygon fill="#6cf" stroke="#6cf" points="109.175 -35.471 99.629 -30.874 104.225 -40.42 109.175 -35.471"/><text x="119.672" y="-59.717" fill="#000" font-family="Times,serif" font-size="14" text-anchor="middle">1</text></g><g id="edge2" class="edge"><title>3-&gt;2</title><path fill="none" stroke="#6cf" d="M137.2496,-86.7549C114.0311,-86.7549 73.6901,-86.7549 46.4296,-86.7549"/><polygon fill="#6cf" stroke="#6cf" points="46.336 -83.255 36.336 -86.755 46.336 -90.255 46.336 -83.255"/><text x="86.84" y="-90.555" fill="#000" font-family="Times,serif" font-size="14" text-anchor="middle">1</text></g><g id="node4" class="node"><title>t</title><ellipse cx="86.755" cy="-155.51" fill="none" stroke="#000" rx="18" ry="18"/><text x="86.755" y="-151.81" fill="#000" font-family="Times,serif" font-size="14" text-anchor="middle">t</text></g><g id="edge4" class="edge"><title>3-&gt;t</title><path fill="none" stroke="#000" d="M142.5776,-99.6872C132.4941,-109.7707 118.312,-123.9528 106.7662,-135.4986"/><polygon fill="#000" stroke="#000" points="104.225 -133.09 99.629 -142.636 109.175 -138.039 104.225 -133.09"/><text x="119.672" y="-121.393" fill="#000" font-family="Times,serif" font-size="14" text-anchor="middle">1</text></g><g id="edge5" class="edge"><title>t-&gt;2</title><path fill="none" stroke="#6cf" d="M73.8227,-142.5776C63.7391,-132.4941 49.5571,-118.312 38.0113,-106.7662"/><polygon fill="#6cf" stroke="#6cf" points="40.42 -104.225 30.874 -99.629 35.471 -109.175 40.42 -104.225"/><text x="50.917" y="-128.472" fill="#000" font-family="Times,serif" font-size="14" text-anchor="middle">1</text></g></g></svg>