<svg xmlns="http://www.w3.org/2000/svg" xmlns:svg="http://www.w3.org/2000/svg" id="svg15005" width="183" height="197" version="1.0"><metadata id="metadata34"/><defs id="defs15007"><marker id="Arrow2Mendw" orient="auto" overflow="visible" refX="0" refY="0"><path id="path13603" fill="#fa8535" fill-rule="evenodd" stroke="#fa8535" stroke-linejoin="round" stroke-width=".625" d="M 8.7185878,4.0337352 L -2.2072895,0.016013256 L 8.7185884,-4.0017078 C 6.97309,-1.6296469 6.9831476,1.6157441 8.7185878,4.0337352 z" font-size="12" transform="scale(-0.6,-0.6)"/></marker><marker id="marker2465U" orient="auto" overflow="visible" refX="0" refY="0"><path id="path13600" fill="#fa8535" fill-rule="evenodd" stroke="#fa8535" stroke-linejoin="round" stroke-width=".625" d="M 8.7185878,4.0337352 L -2.2072895,0.016013256 L 8.7185884,-4.0017078 C 6.97309,-1.6296469 6.9831476,1.6157441 8.7185878,4.0337352 z" font-size="12" transform="scale(0.6,0.6)"/></marker></defs><path id="path2808" fill="#000" fill-opacity="1" fill-rule="evenodd" stroke="#000" stroke-dasharray="none" stroke-linecap="butt" stroke-linejoin="miter" stroke-miterlimit="4" stroke-opacity="1" stroke-width="1.382" d="m 28.768884,24.17644 -5.73294,15.55793 c 0,0 0.24816,-0.157 0.44567,-0.28361 0.19751,-0.12662 0.10635,-0.08609 0.34438,-0.22284 0.23803,-0.13674 0.37477,-0.20764 0.60773,-0.32412 0.23297,-0.11648 0.15193,-0.0709 0.32413,-0.1418 0.17219,-0.0709 0.15193,-0.05571 0.36464,-0.1418 0.2127,-0.0861 0.24815,-0.11142 0.48618,-0.20259 0.23803,-0.09116 0.19751,-0.09116 0.46593,-0.16206 0.26841,-0.07089 0.34438,-0.06584 0.60773,-0.12154 0.26335,-0.05571 0.19245,-0.06078 0.44567,-0.10129 0.25322,-0.04052 0.28867,-0.03039 0.56722,-0.06078 0.27854,-0.03038 0.28867,-0.05064 0.54695,-0.06077 0.25829,-0.01013 0.21778,0.0152 0.48619,0.02026 0.26841,0.0051 0.34945,-0.0051 0.58747,0 0.23803,0.0051 0.18232,0.0051 0.36464,0.02026 0.18232,0.01519 0.157,0.01519 0.36464,0.04051 0.20764,0.02533 0.18739,0.01519 0.46593,0.06077 0.27854,0.04558 0.42541,0.06079 0.64825,0.12155 0.22283,0.06077 0.5115,0.12661 0.89134,0.26336 0.37983,0.13673 0.35957,0.15699 0.62799,0.2836 0.26841,0.12661 0.2127,0.11648 0.44567,0.22284 0.23296,0.10634 0.24815,0.11141 0.48618,0.24309 0.23803,0.13167 0.24816,0.1418 0.46593,0.2836 0.21777,0.14181 0.40515,0.2431 0.40515,0.2431 l -5.71267,-15.53767 z" font-family="Bitstream Vera Sans" font-size="18" font-stretch="normal" font-style="oblique" font-variant="normal" font-weight="normal" text-anchor="start" style="text-align:start;line-height:100%"/><text id="text1534" x="17.492" y="18.094" fill="#000" fill-opacity="1" stroke="none" font-family="Bitstream Vera Sans" font-size="18" font-stretch="normal" font-style="oblique" font-variant="normal" font-weight="normal" text-anchor="start" xml:space="preserve" style="text-align:start;line-height:100%"><tspan id="tspan1536" x="17.492" y="18.094">Im</tspan></text><text id="text1538" x="154.52" y="175.653" fill="#000" fill-opacity="1" stroke="none" font-family="Bitstream Vera Sans" font-size="18" font-stretch="normal" font-style="oblique" font-variant="normal" font-weight="normal" text-anchor="start" xml:space="preserve" style="text-align:start;line-height:100%"><tspan id="tspan1540" x="154.52" y="175.653">Re</tspan></text><path id="path2496" fill="#000" fill-opacity="1" fill-rule="evenodd" stroke="none" d="m 106.14844,59.14204 a 4.3952416,4.2057373 0 1 1 -8.790482,0 4.3952416,4.2057373 0 1 1 8.790482,0 z" font-family="Bitstream Vera Sans" font-size="39.941" font-stretch="normal" font-style="oblique" font-variant="normal" font-weight="normal" text-anchor="start" style="text-align:start;line-height:100%"/><path id="path4084" fill="none" stroke="red" stroke-dasharray="none" stroke-linecap="round" stroke-linejoin="round" stroke-miterlimit="4" stroke-opacity="1" stroke-width="2.5" d="m 45.642758,144.09837 a 28.315815,28.315815 0 0 1 12.73477,23.62329"/><text id="text2502" x="12.408" y="186.98" fill="#000" fill-opacity="1" stroke="none" font-family="Bitstream Vera Sans" font-size="18" font-stretch="normal" font-style="oblique" font-variant="normal" font-weight="normal" text-anchor="start" writing-mode="lr-tb" xml:space="preserve" style="text-align:start;line-height:100%;-inkscape-font-specification:Bitstream Vera Sans Oblique"><tspan id="tspan2504" x="12.408" y="186.98">0</tspan></text><path id="path2398" fill="none" fill-opacity="1" fill-rule="evenodd" stroke="#0064c8" stroke-dasharray="none" stroke-linecap="round" stroke-linejoin="miter" stroke-miterlimit="4" stroke-opacity="1" stroke-width="2.5" d="m 28.215424,168.80121 c 70.146,-104.89724 70.146,-104.89724 70.146,-104.89724" font-family="Bitstream Vera Sans" font-size="18" font-stretch="normal" font-style="oblique" font-variant="normal" font-weight="normal" text-anchor="start" style="text-align:start;line-height:100%"/><path id="path2868" fill="none" stroke="#000" stroke-dasharray="none" stroke-linecap="butt" stroke-linejoin="miter" stroke-miterlimit="4" stroke-opacity="1" stroke-width="1.75" d="M 28.405064,195.54719 28.905494,31.59138" font-family="Bitstream Vera Sans" font-size="18" font-stretch="normal" font-style="oblique" font-variant="normal" font-weight="normal" text-anchor="start" style="text-align:start;line-height:100%"/><path id="path3369" fill="#0064c8" fill-opacity="1" fill-rule="evenodd" stroke="#0064c8" stroke-dasharray="none" stroke-linecap="butt" stroke-linejoin="miter" stroke-miterlimit="4" stroke-opacity="1" stroke-width="1.75" d="m 100.58644,60.7595 -11.285089,8.298599 c 0,0 0.251034,9.02e-4 0.451601,4.96e-4 0.200561,-4.17e-4 0.116228,-0.01271 0.350642,-0.0022 0.234421,0.01053 0.365573,0.02192 0.587028,0.04433 0.221462,0.02241 0.142099,0.01815 0.298792,0.0453 0.15672,0.02717 0.135116,0.02876 0.328012,0.06335 0.192869,0.03459 0.230072,0.0327 0.443531,0.07502 0.21348,0.04234 0.184266,0.0243 0.41032,0.09428 0.22604,0.06997 0.278471,0.107289 0.493882,0.1856 0.215404,0.07831 0.166633,0.04325 0.367768,0.127623 0.201128,0.08442 0.222022,0.107251 0.436731,0.209979 0.214722,0.102709 0.231348,0.0931 0.422144,0.200936 0.190816,0.107845 0.149973,0.107472 0.341086,0.23041 0.191113,0.122952 0.254181,0.151944 0.4234,0.261363 0.16922,0.109426 0.129066,0.08464 0.253485,0.176349 0.124413,0.0917 0.106152,0.08043 0.244166,0.190461 0.138013,0.110034 0.128066,0.09397 0.307854,0.24966 0.179789,0.1557 0.278654,0.23164 0.411319,0.373154 0.132644,0.141496 0.310434,0.315831 0.521313,0.580173 0.21088,0.26431 0.186967,0.269439 0.322198,0.477137 0.135232,0.207705 0.09973,0.175864 0.21874,0.35367 0.119004,0.177792 0.127621,0.188076 0.238629,0.385797 0.111001,0.197714 0.113654,0.209274 0.205402,0.405047 0.09173,0.195774 0.180214,0.349749 0.180214,0.349749 L 100.58644,60.7595 z" font-family="Bitstream Vera Sans" font-size="18" font-stretch="normal" font-style="oblique" font-variant="normal" font-weight="normal" text-anchor="start" style="text-align:start;line-height:100%"/><path id="path4342" fill="#000" fill-opacity="1" fill-rule="evenodd" stroke="#000" stroke-dasharray="none" stroke-linecap="butt" stroke-linejoin="miter" stroke-miterlimit="4" stroke-opacity="1" stroke-width="1.382" d="m 148.58241,168.49813 -15.55793,-5.73293 c 0,0 0.157,0.24815 0.28361,0.44567 0.12662,0.19751 0.0861,0.10635 0.22284,0.34438 0.13674,0.23803 0.20764,0.37477 0.32412,0.60773 0.11648,0.23296 0.0709,0.15193 0.1418,0.32412 0.0709,0.17219 0.0557,0.15194 0.14181,0.36464 0.0861,0.21271 0.11141,0.24816 0.20258,0.48619 0.0912,0.23803 0.0912,0.19751 0.16206,0.46593 0.0709,0.26841 0.0658,0.34438 0.12154,0.60773 0.0557,0.26335 0.0608,0.19245 0.10129,0.44567 0.0405,0.25322 0.0304,0.28867 0.0608,0.56721 0.0304,0.27855 0.0506,0.28868 0.0608,0.54696 0.0101,0.25829 -0.0152,0.21777 -0.0203,0.48619 -0.005,0.26841 0.005,0.34944 0,0.58747 -0.005,0.23803 -0.005,0.18232 -0.0203,0.36464 -0.0152,0.18232 -0.0152,0.157 -0.0405,0.36464 -0.0253,0.20764 -0.0152,0.18738 -0.0608,0.46593 -0.0456,0.27854 -0.0608,0.42541 -0.12155,0.64824 -0.0608,0.22284 -0.12661,0.51151 -0.26336,0.89134 -0.13673,0.37984 -0.15699,0.35958 -0.28359,0.62799 -0.12662,0.26842 -0.11649,0.21271 -0.22285,0.44567 -0.10634,0.23297 -0.11141,0.24816 -0.24309,0.48619 -0.13167,0.23803 -0.1418,0.24816 -0.2836,0.46593 -0.14181,0.21777 -0.24309,0.40515 -0.24309,0.40515 l 15.53766,-5.71268 z" font-family="Bitstream Vera Sans" font-size="18" font-stretch="normal" font-style="oblique" font-variant="normal" font-weight="normal" text-anchor="start" style="text-align:start;line-height:100%"/><path id="path2870" fill="none" stroke="#000" stroke-dasharray="none" stroke-linecap="butt" stroke-linejoin="miter" stroke-miterlimit="4" stroke-opacity="1" stroke-width="1.75" d="m 2.3138342,168.92046 136.5218758,0" font-family="Bitstream Vera Sans" font-size="18" font-stretch="normal" font-style="oblique" font-variant="normal" font-weight="normal" text-anchor="start" style="text-align:start;line-height:100%"/><text id="text4090" x="61.308" y="152.219" fill="red" fill-opacity="1" stroke="none" font-family="Bitstream Vera Sans" font-size="18" font-stretch="normal" font-style="oblique" font-variant="normal" font-weight="normal" text-anchor="start" writing-mode="lr-tb" xml:space="preserve" style="text-align:start;line-height:125%;-inkscape-font-specification:Bitstream Vera Sans Oblique"><tspan id="tspan4092" x="61.308" y="152.219" fill="red" fill-opacity="1" font-family="Bitstream Vera Sans" font-size="18" font-stretch="normal" font-style="oblique" font-variant="normal" font-weight="normal" text-anchor="start" writing-mode="lr-tb" style="text-align:start;line-height:125%;-inkscape-font-specification:Bitstream Vera Sans Oblique">φ</tspan></text><path id="path4110" fill="#f29664" fill-opacity="1" fill-rule="evenodd" stroke="#fa8535" stroke-dasharray="none" stroke-linecap="butt" stroke-linejoin="miter" stroke-miterlimit="4" stroke-opacity="1" stroke-width="1.914" marker-end="url(#Arrow2Mendw)" marker-start="url(#marker2465U)" d="M 14.179714,153.93336 83.095054,50.98055"/><rect id="rect4112" width="21.249" height="20.806" x="39.174" y="91.341" fill="#fff" fill-opacity="1" fill-rule="nonzero" stroke="none"/><text id="text4102" x="46.257" y="107.278" fill="#f29664" fill-opacity="1" stroke="none" font-family="Bitstream Vera Sans" font-size="18" font-stretch="normal" font-style="oblique" font-variant="normal" font-weight="normal" text-anchor="start" writing-mode="lr-tb" xml:space="preserve" style="text-align:start;line-height:125%;-inkscape-font-specification:Bitstream Vera Sans Oblique"><tspan id="tspan4104" x="46.257" y="107.278" fill="#f29664" fill-opacity="1" stroke="none" font-family="Bitstream Vera Sans" font-size="18" font-stretch="normal" font-style="oblique" font-variant="normal" font-weight="normal" text-anchor="start" writing-mode="lr-tb" style="text-align:start;line-height:125%;-inkscape-font-specification:Bitstream Vera Sans Oblique">r</tspan></text><path id="path13373" fill="#f29664" fill-opacity="1" fill-rule="evenodd" stroke="#fa8535" stroke-dasharray="none" stroke-linecap="butt" stroke-linejoin="miter" stroke-miterlimit="4" stroke-opacity="1" stroke-width="1.941" d="M 92.871214,54.79459 77.048084,42.7261"/><path id="path13375" fill="#f29664" fill-opacity="1" fill-rule="evenodd" stroke="#fa8535" stroke-dasharray="none" stroke-linecap="butt" stroke-linejoin="miter" stroke-miterlimit="4" stroke-opacity="1" stroke-width="1.941" d="M 23.131054,163.86891 4.7497242,149.84925"/><path id="path2837" fill="none" stroke="#000" stroke-dasharray="1.75 5.25" stroke-dashoffset="0" stroke-linecap="butt" stroke-linejoin="miter" stroke-miterlimit="4" stroke-opacity="1" stroke-width="1.75" d="M 101.23981,165.49634 101.74024,60.807482" font-family="Bitstream Vera Sans" font-size="18" font-stretch="normal" font-style="oblique" font-variant="normal" font-weight="normal" text-anchor="start" style="text-align:start;line-height:100%"/><path id="path3623" fill="none" stroke="#000" stroke-dasharray="1.75 5.25" stroke-dashoffset="0" stroke-linecap="butt" stroke-linejoin="miter" stroke-miterlimit="4" stroke-opacity="1" stroke-width="1.75" d="m 30.991024,58.92046 64.976821,0" font-family="Bitstream Vera Sans" font-size="18" font-stretch="normal" font-style="oblique" font-variant="normal" font-weight="normal" text-anchor="start" style="text-align:start;line-height:100%"/><text id="text3625" x="94.749" y="184.835" fill="#000" fill-opacity="1" stroke="none" font-family="Bitstream Vera Sans" font-size="18" font-stretch="normal" font-style="oblique" font-variant="normal" font-weight="normal" text-anchor="start" xml:space="preserve" style="text-align:start;line-height:100%"><tspan id="tspan3627" x="94.749" y="184.835">x</tspan></text><text id="text3629" x="13.361" y="63.797" fill="#000" fill-opacity="1" stroke="none" font-family="Bitstream Vera Sans" font-size="18" font-stretch="normal" font-style="oblique" font-variant="normal" font-weight="normal" text-anchor="start" writing-mode="lr" xml:space="preserve" style="text-align:start;line-height:100%;-inkscape-font-specification:Bitstream Vera Sans Oblique"><tspan id="tspan3633">y</tspan></text></svg>