<svg xmlns="http://www.w3.org/2000/svg" xmlns:xlink="http://www.w3.org/1999/xlink" width="182pt" height="182pt" viewBox="0 0 181.51 181.51"><g id="graph0" class="graph" transform="scale(1 1) rotate(0) translate(4 177.5099)"><title>g</title><polygon fill="#fff" stroke="transparent" points="-4 4 -4 -177.51 177.51 -177.51 177.51 4 -4 4"/><g id="node1" class="node"><title>s</title><ellipse cx="86.755" cy="-18" fill="none" stroke="#000" rx="18" ry="18"/><text x="86.755" y="-14.3" fill="#000" font-family="Times,serif" font-size="14" text-anchor="middle">s</text></g><g id="node2" class="node"><title>2</title><ellipse cx="18" cy="-86.755" fill="none" stroke="#000" rx="18" ry="18"/><text x="18" y="-83.055" fill="#000" font-family="Times,serif" font-size="14" text-anchor="middle">2</text></g><g id="edge1" class="edge"><title>s-&gt;2</title><path fill="none" stroke="#e00" d="M70.704,-26.5331C59.3257,-35.6868 44.3057,-50.3123 33.1412,-62.9123"/><polygon fill="#e00" stroke="#e00" points="30.233 -60.93 26.438 -70.822 35.574 -65.456 30.233 -60.93"/><text x="40.423" y="-48.523" fill="#000" font-family="Times,serif" font-size="14" text-anchor="middle">1/1</text></g><g id="node3" class="node"><title>3</title><ellipse cx="155.51" cy="-86.755" fill="none" stroke="#000" rx="18" ry="18"/><text x="155.51" y="-83.055" fill="#000" font-family="Times,serif" font-size="14" text-anchor="middle">3</text></g><g id="edge3" class="edge"><title>s-&gt;3</title><path fill="none" stroke="#000" d="M99.6872,-30.9323C109.7707,-41.0158 123.9528,-55.1978 135.4986,-66.7436"/><polygon fill="#000" stroke="#000" points="133.09 -69.284 142.636 -73.881 138.039 -64.335 133.09 -69.284"/><text x="106.093" y="-52.638" fill="#000" font-family="Times,serif" font-size="14" text-anchor="middle">0/1</text></g><g id="edge2" class="edge"><title>2-&gt;s</title><path fill="none" stroke="#6cf" d="M34.0509,-78.2218C45.4292,-69.0681 60.4492,-54.4426 71.6138,-41.8426"/><polygon fill="#6cf" stroke="#6cf" points="74.522 -43.825 78.317 -33.933 69.181 -39.299 74.522 -43.825"/><text x="66.832" y="-63.832" fill="#000" font-family="Times,serif" font-size="14" text-anchor="middle">-1/0</text></g><g id="edge4" class="edge"><title>2-&gt;3</title><path fill="none" stroke="#e00" d="M35.4157,-91.4281C58.6391,-93.8637 100.0179,-94.157 127.6146,-92.3081"/><polygon fill="#e00" stroke="#e00" points="128.127 -95.778 137.801 -91.459 127.545 -88.802 128.127 -95.778"/><text x="70.015" y="-95.668" fill="#000" font-family="Times,serif" font-size="14" text-anchor="middle">1/1</text></g><g id="node4" class="node"><title>t</title><ellipse cx="86.755" cy="-155.51" fill="none" stroke="#000" rx="18" ry="18"/><text x="86.755" y="-151.81" fill="#000" font-family="Times,serif" font-size="14" text-anchor="middle">t</text></g><g id="edge6" class="edge"><title>2-&gt;t</title><path fill="none" stroke="#000" d="M30.9323,-99.6872C41.0158,-109.7707 55.1978,-123.9528 66.7436,-135.4986"/><polygon fill="#000" stroke="#000" points="64.335 -138.039 73.881 -142.636 69.284 -133.09 64.335 -138.039"/><text x="37.338" y="-121.393" fill="#000" font-family="Times,serif" font-size="14" text-anchor="middle">0/1</text></g><g id="edge5" class="edge"><title>3-&gt;2</title><path fill="none" stroke="#6cf" d="M138.0942,-82.0818C114.8708,-79.6462 73.4919,-79.3528 45.8952,-81.2017"/><polygon fill="#6cf" stroke="#6cf" points="45.383 -77.732 35.709 -82.051 45.965 -84.708 45.383 -77.732"/><text x="105.995" y="-85.442" fill="#000" font-family="Times,serif" font-size="14" text-anchor="middle">-1/0</text></g><g id="edge7" class="edge"><title>3-&gt;t</title><path fill="none" stroke="#e00" d="M139.459,-95.2881C128.0807,-104.4417 113.0606,-119.0672 101.8961,-131.6673"/><polygon fill="#e00" stroke="#e00" points="98.988 -129.685 95.193 -139.577 104.329 -134.211 98.988 -129.685"/><text x="109.177" y="-117.278" fill="#000" font-family="Times,serif" font-size="14" text-anchor="middle">1/1</text></g><g id="edge8" class="edge"><title>t-&gt;3</title><path fill="none" stroke="#6cf" d="M102.8058,-146.9768C114.1841,-137.8231 129.2042,-123.1976 140.3687,-110.5975"/><polygon fill="#6cf" stroke="#6cf" points="143.277 -112.58 147.072 -102.688 137.936 -108.054 143.277 -112.58"/><text x="135.587" y="-132.587" fill="#000" font-family="Times,serif" font-size="14" text-anchor="middle">-1/0</text></g></g></svg>